<?xml version="1.0" encoding="UTF-8" standalone="no"?>
<svg
   version="1.0"
   width="735.000000pt"
   height="758.000000pt"
   viewBox="0 0 735.000000 758.000000"
   preserveAspectRatio="xMidYMid meet"
   id="svg16"
   sodipodi:docname="01b3dde5-8c5d-4ac5-a54c-c4547c91ff86.svg"
   inkscape:export-filename="../Desktop/03 Resources/Tueny.co/logo.png"
   inkscape:export-xdpi="96"
   inkscape:export-ydpi="96"
   inkscape:version="1.3-beta (cedbd6c, 2023-05-28)"
   xmlns:inkscape="http://www.inkscape.org/namespaces/inkscape"
   xmlns:sodipodi="http://sodipodi.sourceforge.net/DTD/sodipodi-0.dtd"
   xmlns="http://www.w3.org/2000/svg"
   xmlns:svg="http://www.w3.org/2000/svg">
  <defs
     id="defs16" />
  <sodipodi:namedview
     id="namedview16"
     pagecolor="#ffffff"
     bordercolor="#666666"
     borderopacity="1.0"
     inkscape:showpageshadow="2"
     inkscape:pageopacity="0.0"
     inkscape:pagecheckerboard="0"
     inkscape:deskcolor="#d1d1d1"
     inkscape:document-units="pt"
     inkscape:zoom="0.67569558"
     inkscape:cx="398.84825"
     inkscape:cy="510.58496"
     inkscape:window-width="1452"
     inkscape:window-height="969"
     inkscape:window-x="234"
     inkscape:window-y="35"
     inkscape:window-maximized="0"
     inkscape:current-layer="g16" />
  <metadata
     id="metadata1">&#10;Created by potrace 1.16, written by Peter Selinger 2001-2019&#10;</metadata>
  <g
     transform="translate(0.000000,758.000000) scale(0.100000,-0.100000)"
     fill="#000000"
     stroke="none"
     id="g16">
    <path
       d="M2440 5848 c0 -21 -218 -589 -263 -687 -20 -43 -20 -45 -3 -55 10 -6 118 -82 240 -168 167 -119 224 -154 232 -145 6 7 45 107 87 222 100 276 107 293 117 275 9 -17 110 -288 190 -514 58 -161 58 -165 2 -201 -17 -11 -31 -25 -32 -30 0 -16 -100 -109 -147 -138 -22 -14 -61 -49 -85 -78 -89 -107 -184 -208 -334 -354 -175 -169 -109 -24 -515 -1135 -88 -239 -172 -468 -188 -508 -18 -44 -25 -75 -19 -78 6 -4 32 16 58 43 110 115 340 291 460 353 39 20 96 70 197 174 79 80 150 146 159 146 9 0 46 -25 83 -56 36 -31 75 -61 88 -67 23 -10 0 -22 394 205 142 82 240 123 276 116 10 -2 24 -16 31 -31 13 -26 32 -37 32 -18 0 21 91 100 122 106 57 12 99 45 263 205 194 189 252 240 276 240 22 0 100 -115 203 -303 73 -132 87 -167 66 -167 -5 0 -10 -8 -10 -18 0 -22 44 -64 130 -124 85 -60 125 -104 245 -273 55 -77 124 -167 153 -200 94 -105 274 -287 279 -282 2 3 -3 20 -13 39 -9 18 -61 159 -115 313 -80 227 -96 282 -86 295 7 8 62 74 123 145 416 485 545 641 550 659 3 14 -51 165 -150 417 -86 218 -156 402 -156 410 0 9 -15 46 -34 85 -19 38 -39 87 -45 109 -6 22 -29 83 -52 135 -47 107 -142 345 -260 650 -44 113 -88 212 -97 222 -13 13 -51 19 -170 27 -84 6 -188 11 -230 11 -69 0 -81 -3 -99 -22 -42 -46 -563 -770 -563 -783 0 -7 45 -126 100 -264 55 -138 102 -263 106 -278 3 -16 17 -47 31 -70 36 -65 42 -58 -312 -402 -110 -106 -209 -200 -220 -207 -11 -7 -115 -106 -230 -219 -133 -130 -216 -204 -226 -202 -8 2 -71 41 -138 87 -123 82 -123 82 -90 116 18 19 38 34 45 34 6 0 34 21 61 48 28 26 114 103 192 172 123 109 383 344 560 506 55 51 55 51 34 100 -12 27 -31 78 -43 114 -12 36 -26 70 -31 76 -5 7 -32 77 -58 155 -27 79 -68 191 -91 249 -48 119 -153 402 -245 660 -62 175 -62 175 -449 178 -386 2 -386 2 -386 -20z m2211 -713 c32 -77 73 -174 90 -215 45 -107 107 -245 140 -314 16 -33 29 -68 29 -79 0 -11 17 -54 37 -95 20 -42 37 -90 37 -108 0 -21 6 -34 16 -37 15 -4 190 -400 190 -430 0 -15 -325 -439 -340 -445 -8 -3 -72 181 -170 488 -33 107 -70 218 -80 245 -10 28 -28 84 -40 125 -12 41 -42 131 -67 200 -25 69 -49 139 -53 155 -5 17 -22 68 -40 115 -63 169 -71 195 -67 215 4 25 239 326 250 322 5 -1 35 -65 68 -142z"
       id="path1" />
    <path
       d="m 4690,4852 c 0,-22 13,-42 27,-42 21,0 12,44 -9,48 -10,2 -18,-1 -18,-6 z"
       id="path2"
       style="display:none" />
    <path
       d="m 4480,4690 c 0,-5 5,-10 10,-10 6,0 10,5 10,10 0,6 -4,10 -10,10 -5,0 -10,-4 -10,-10 z"
       id="path3"
       style="display:none" />
    <path
       d="m 4712,4404 c 4,-21 22,-23 26,-1 2,10 -3,17 -13,17 -10,0 -15,-6 -13,-16 z"
       id="path4"
       style="display:none" />
    <path
       d="m 5320,4860 c 0,-13 5,-20 13,-17 6,2 12,10 12,17 0,7 -6,15 -12,18 -8,2 -13,-5 -13,-18 z"
       id="path5"
       style="display:none" />
    <path
       d="m 5475,4720 c -4,-6 -3,-16 3,-22 6,-6 12,-6 17,2 4,6 3,16 -3,22 -6,6 -12,6 -17,-2 z"
       id="path6"
       style="display:none" />
    <path
       d="m 5430,4664 c 0,-17 22,-14 28,4 2,7 -3,12 -12,12 -9,0 -16,-7 -16,-16 z"
       id="path7"
       style="display:none" />
    <path
       d="m 3800,4425 c 0,-8 5,-15 10,-15 6,0 10,7 10,15 0,8 -4,15 -10,15 -5,0 -10,-7 -10,-15 z"
       id="path8"
       style="display:none" />
    <path
       d="m 2145,4340 c -17,-18 -17,-20 0,-26 17,-7 35,10 35,34 0,18 -14,15 -35,-8 z"
       id="path9"
       style="display:none" />
    <path
       d="m 2347,4346 c -18,-14 -23,-36 -9,-36 14,0 44,38 35,43 -5,3 -16,0 -26,-7 z"
       id="path10"
       style="display:none" />
    <path
       d="m 4014,4345 c -9,-22 1,-29 15,-11 8,10 9,16 1,21 -5,3 -13,-1 -16,-10 z"
       id="path11"
       style="display:none" />
    <path
       d="m 2392,4163 c 2,-10 11,-19 21,-21 24,-5 21,15 -4,28 -18,10 -20,9 -17,-7 z"
       id="path12"
       style="display:none" />
    <path
       d="m 2340,4155 c 0,-10 7,-15 18,-13 21,4 19,22 -2,26 -10,2 -16,-3 -16,-13 z"
       id="path13"
       style="display:none" />
    <path
       d="m 2205,4071 c -3,-5 -1,-12 5,-16 12,-7 30,2 30,16 0,12 -27,12 -35,0 z"
       id="path14"
       style="display:none" />
    <path
       d="M3985 3361 c-27 -16 -119 -81 -204 -144 -154 -116 -175 -128 -306 -166 -106 -31 -131 -50 -150 -115 -21 -71 -79 -125 -269 -251 -163 -107 -186 -120 -186 -105 0 5 33 35 74 65 41 30 82 65 91 77 15 21 14 24 -5 40 -34 28 -85 32 -158 14 -89 -22 -165 -59 -310 -149 -66 -42 -138 -85 -161 -96 -40 -21 -54 -41 -29 -41 15 0 170 59 291 111 48 20 87 34 87 30 0 -15 -104 -129 -167 -183 -126 -107 -306 -196 -451 -224 -70 -13 -118 -33 -81 -34 7 -1 252 0 544 0 426 1 534 3 550 14 47 32 154 144 174 183 11 23 21 58 21 77 0 31 -5 38 -38 55 -21 11 -44 26 -51 35 -30 36 24 115 142 207 84 67 147 143 147 178 0 9 5 23 10 31 8 12 24 1 87 -61 43 -42 123 -109 178 -149 128 -94 182 -149 234 -238 55 -94 93 -122 326 -237 192 -94 192 -94 521 -95 181 -1 330 2 331 7 4 10 -152 81 -196 89 -17 4 -62 -2 -103 -12 -50 -13 -104 -18 -173 -17 -98 1 -222 16 -234 28 -11 12 32 34 127 66 102 34 145 65 140 101 -2 18 -15 25 -68 38 -67 17 -124 42 -135 60 -9 15 -35 12 -35 -4 0 -25 -47 -53 -112 -66 -34 -6 -82 -23 -105 -37 -54 -31 -97 -29 -101 7 -3 33 31 87 68 108 37 21 37 31 3 64 -44 41 -101 65 -234 99 -151 38 -225 73 -256 118 -29 44 -29 50 7 99 37 52 58 53 110 5 41 -36 41 -36 75 -20 41 19 68 57 63 89 -2 19 -10 24 -40 26 -21 2 -38 6 -38 10 0 4 21 32 47 62 46 52 48 56 50 124 2 39 4 89 5 111 3 38 1 40 -27 43 -19 1 -49 -9 -80 -27z"
       id="path15" />
    <path
       d="M3590 2274 c-37 -6 -301 -55 -328 -60 -13 -3 -22 -9 -20 -15 4 -13 1082 -13 1086 0 4 11 11 10 -193 47 -123 23 -184 28 -335 30 -102 1 -196 0 -210 -2z"
       id="path16" />
  </g>
</svg>
