<?xml version="1.0" encoding="UTF-8" standalone="no"?>
<svg
   version="1.0"
   width="454.000000pt"
   height="471.000000pt"
   viewBox="0 0 454.000000 471.000000"
   preserveAspectRatio="xMidYMid meet"
   id="svg9"
   sodipodi:docname="3f4b38e6-48ce-4be7-9f27-d792e172218b.svg"
   inkscape:version="1.3-beta (cedbd6c, 2023-05-28)"
   inkscape:export-filename="../Desktop/03 Resources/Tueny.co/alternative-logo.png"
   inkscape:export-xdpi="96"
   inkscape:export-ydpi="96"
   xmlns:inkscape="http://www.inkscape.org/namespaces/inkscape"
   xmlns:sodipodi="http://sodipodi.sourceforge.net/DTD/sodipodi-0.dtd"
   xmlns="http://www.w3.org/2000/svg"
   xmlns:svg="http://www.w3.org/2000/svg">
  <defs
     id="defs9" />
  <sodipodi:namedview
     id="namedview9"
     pagecolor="#ffffff"
     bordercolor="#666666"
     borderopacity="1.0"
     inkscape:showpageshadow="2"
     inkscape:pageopacity="0.0"
     inkscape:pagecheckerboard="0"
     inkscape:deskcolor="#d1d1d1"
     inkscape:document-units="pt"
     showgrid="false"
     inkscape:zoom="0.96178344"
     inkscape:cx="302.56291"
     inkscape:cy="314"
     inkscape:window-width="1385"
     inkscape:window-height="817"
     inkscape:window-x="28"
     inkscape:window-y="63"
     inkscape:window-maximized="0"
     inkscape:current-layer="svg9" />
  <metadata
     id="metadata1">&#10;Created by potrace 1.16, written by Peter Selinger 2001-2019&#10;</metadata>
  <g
     transform="translate(0.000000,471.000000) scale(0.100000,-0.100000)"
     fill="#ffffffff"
     stroke="none"
     id="g9">
    <path
       d="M1759 3124 c-10 -12 -10 -24 -1 -60 7 -24 12 -64 12 -89 0 -54 -18 -143 -31 -151 -13 -8 -326 15 -377 28 -39 10 -46 9 -64 -10 -20 -19 -20 -22 -5 -45 19 -30 53 -37 177 -37 53 0 131 -3 173 -6 91 -8 90 -7 51 -122 -85 -249 -208 -426 -380 -548 -149 -106 -186 -163 -129 -200 59 -38 202 41 380 210 55 52 101 91 103 86 2 -5 -1 -26 -7 -47 -19 -66 -14 -120 11 -137 29 -21 54 -20 105 3 42 19 42 19 58 -5 22 -34 74 -32 143 7 53 30 54 30 89 14 43 -21 94 -10 141 30 38 32 45 31 59 -5 9 -24 17 -30 41 -30 36 0 50 16 95 105 36 71 129 185 142 173 4 -3 -3 -44 -14 -89 -26 -102 -28 -201 -5 -224 12 -11 25 -14 43 -10 44 11 70 34 102 90 39 69 49 75 49 31 0 -37 28 -76 54 -76 18 0 70 51 103 102 14 21 30 38 34 38 12 0 11 -97 -2 -183 -7 -45 -25 -102 -50 -154 -33 -69 -52 -93 -121 -157 -112 -102 -252 -213 -375 -297 -99 -67 -120 -89 -88 -89 20 0 265 156 393 252 144 106 213 175 256 257 49 94 65 172 72 346 6 162 -2 197 -43 203 -23 3 -37 -13 -92 -102 -19 -31 -38 -56 -41 -56 -3 0 -6 36 -5 81 0 73 -2 82 -24 100 -13 10 -27 19 -33 19 -20 0 -55 -51 -72 -107 -20 -64 -88 -183 -94 -165 -2 6 4 39 13 74 42 154 42 187 0 214 -22 14 -27 14 -62 -3 -21 -9 -67 -48 -102 -85 -36 -38 -67 -68 -70 -68 -4 0 -6 28 -6 61 0 48 -4 64 -17 73 -24 15 -50 -2 -62 -40 -33 -113 -117 -234 -162 -234 -19 0 -15 7 48 77 59 66 94 147 102 234 6 64 5 79 -9 93 -33 33 -61 16 -127 -75 -59 -80 -91 -146 -107 -224 -17 -78 -18 -81 -64 -109 -26 -16 -50 -26 -54 -23 -13 14 50 157 107 242 61 92 73 132 45 155 -21 17 -56 -7 -87 -59 -105 -182 -168 -277 -196 -302 -58 -51 -64 -39 -31 67 25 80 53 138 121 250 43 71 48 85 38 104 -20 38 -51 21 -102 -55 -47 -69 -248 -280 -248 -259 0 6 20 40 45 77 66 99 121 214 165 346 39 116 39 116 247 112 114 -2 307 -6 428 -10 203 -6 253 -2 240 19 -2 4 -62 10 -132 13 -170 9 -717 48 -721 52 -2 2 2 44 9 94 10 71 10 101 1 143 -18 78 -53 108 -83 72z m400 -844 c-13 -23 -25 -37 -27 -32 -4 12 39 85 45 78 3 -3 -5 -23 -18 -46z"
       id="path1" />
    <path
       d="M2006 3004 c-10 -14 -34 -32 -52 -40 -19 -8 -34 -19 -34 -24 0 -20 28 -22 55 -4 14 9 28 14 31 11 12 -11 -7 -44 -31 -55 -23 -11 -34 -31 -17 -33 41 -4 89 -4 96 -1 5 3 -1 12 -12 21 -21 15 -21 18 -7 65 18 60 19 86 3 86 -7 0 -21 -12 -32 -26z"
       id="path2" />
    <path
       d="M2077 2998 c-3 -18 -9 -46 -13 -61 -6 -26 -5 -28 20 -21 25 6 26 4 24 -27 -2 -25 1 -34 12 -34 11 0 17 15 21 50 3 28 11 62 17 76 6 15 8 30 5 33 -11 11 -33 6 -33 -7 0 -7 -7 -22 -16 -33 -14 -18 -15 -17 -9 19 4 28 3 37 -8 37 -9 0 -17 -13 -20 -32z"
       id="path3" />
    <path
       d="M2320 2995 c0 -8 -13 -24 -30 -37 -16 -12 -30 -27 -30 -34 0 -7 -9 -28 -20 -48 -27 -44 -11 -54 30 -19 27 22 35 25 51 15 25 -16 29 -15 29 7 0 11 12 29 26 40 27 21 27 51 0 51 -7 0 -16 9 -19 20 -6 23 -37 27 -37 5z"
       id="path4" />
    <path
       d="M2493 2956 c-28 -29 -29 -36 -2 -36 16 0 19 -4 14 -22 -4 -13 -17 -33 -28 -46 -25 -27 -12 -46 25 -37 20 5 24 12 24 38 0 18 4 53 8 80 10 55 -4 62 -41 23z"
       id="path5" />
    <path
       d="M2570 2955 c0 -14 -7 -40 -16 -57 -20 -39 -6 -57 31 -40 35 16 36 16 33 -15 -2 -19 2 -28 15 -31 15 -3 17 5 17 72 0 81 -14 106 -31 57 -14 -40 -31 -40 -27 1 2 19 -2 33 -9 35 -8 3 -13 -5 -13 -22z"
       id="path6" />
    <path
       d="m 3292,2888 c -7,-7 -12,-17 -12,-23 0,-5 -16,-34 -36,-64 -36,-53 -36,-53 -88,-47 -59,8 -80,-5 -74,-46 2,-16 13,-27 38,-35 40,-13 40,-16 3,-96 -30,-65 -25,-92 18,-92 19,0 30,12 54,57 17,32 33,58 36,58 3,0 14,-16 25,-35 23,-42 41,-51 65,-29 13,12 19,32 20,63 1,104 13,146 52,185 20,20 37,42 37,49 0,20 -22,37 -46,37 -12,0 -27,7 -34,15 -15,18 -42,19 -58,3 z"
       id="path7"
       style="display:inline" />
    <path
       d="m 1531,2454 c 0,-11 3,-14 6,-6 3,7 2,16 -1,19 -3,4 -6,-2 -5,-13 z"
       id="path8"
       style="display:none" />
    <path
       d="m 1130,1839 c 0,-5 5,-7 10,-4 6,3 10,8 10,11 0,2 -4,4 -10,4 -5,0 -10,-5 -10,-11 z"
       id="path9"
       style="display:none" />
  </g>
</svg>
